<svg xmlns="http://www.w3.org/2000/svg" version="1.1" xmlns:xlink="http://www.w3.org/1999/xlink" xmlns:svgjs="http://svgjs.dev/svgjs" width="1500" height="939" viewBox="0 0 1500 939"><g transform="matrix(1,0,0,1,-0.9090909090909918,185.03429130009772)"><svg viewBox="0 0 396 248" data-background-color="#163204" preserveAspectRatio="xMidYMid meet" height="939" width="1500" xmlns="http://www.w3.org/2000/svg" xmlns:xlink="http://www.w3.org/1999/xlink"><g id="tight-bounds" transform="matrix(1,0,0,1,0.2400000000000091,0.4000000000000057)"><svg viewBox="0 0 395.52 247.2" height="247.2" width="395.52"><g><svg></svg></g><g><svg viewBox="0 0 395.52 247.2" height="247.2" width="395.52"><g transform="matrix(1,0,0,1,75.54432,57.284384652363116)"><svg viewBox="0 0 244.43135999999998 132.63123069527376" height="132.63123069527376" width="244.43135999999998"><g><svg viewBox="0 0 244.43135999999998 132.63123069527376" height="132.63123069527376" width="244.43135999999998"><g><svg viewBox="0 0 244.43135999999998 132.63123069527376" height="132.63123069527376" width="244.43135999999998"><g><svg viewBox="0 0 244.43135999999998 132.63123069527376" height="132.63123069527376" width="244.43135999999998"><g id="textblocktransform"><svg viewBox="0 0 244.43135999999998 132.63123069527376" height="132.63123069527376" width="244.43135999999998" id="textblock"><g><svg viewBox="0 0 244.43135999999998 82.19584404914706" height="82.19584404914706" width="244.43135999999998"><g transform="matrix(1,0,0,1,0,0)"><svg width="244.43135999999998" viewBox="0.95 -23.55 83.84185519522299 28.200000000000006" height="82.19584404914706" data-palette-color="#fff200"><path d="M1.4 4.65L1.4 4.65Q1.15 4.65 1.15 4.2L1.15 4.2Q1.15 4.1 1.18 3.93 1.2 3.75 1.25 3.55L1.25 3.55 3.4-1.85 5.95-8.15Q5.35-8.2 4.2-8.13 3.05-8.05 2.25-7.9L2.25-7.9Q1.95-7.85 1.78-7.83 1.6-7.8 1.5-7.8L1.5-7.8Q1.1-7.8 0.95-8.15L0.95-8.15Q1-8.45 1.5-8.7L1.5-8.7Q1.75-8.8 2.1-8.88 2.45-8.95 2.95-9.05L2.95-9.05Q3.5-9.15 3.93-9.2 4.35-9.25 4.55-9.3L4.55-9.3Q4.8-9.35 5.05-9.4 5.3-9.45 5.65-9.5L5.65-9.5Q5.95-9.55 6.3-9.6 6.65-9.65 7.05-9.75L7.05-9.75Q7.45-10.3 8.25-11.7 9.05-13.1 10.3-15.4L10.3-15.4Q11.3-17.25 11.93-18.32 12.55-19.4 12.8-19.75L12.8-19.75Q13.25-20.35 13.85-20.35L13.85-20.35Q14.15-20.35 14.15-20.1L14.15-20.1Q14.15-20.05 13.9-19.45L13.9-19.45Q13.6-18.95 12.9-17.6 12.2-16.25 11.4-14.65 10.6-13.05 9.95-11.65 9.3-10.25 9.05-9.6L9.05-9.6Q9.3-9.65 9.63-9.65 9.95-9.65 10.45-9.65L10.45-9.65Q11-9.65 11.48-9.63 11.95-9.6 12.3-9.55L12.3-9.55Q13-9.4 13-9.15L13-9.15Q13-9.05 12.55-8.8L12.55-8.8Q12.3-8.7 11.6-8.6 10.9-8.5 9.75-8.4L9.75-8.4Q9.45-8.4 9.1-8.38 8.75-8.35 8.35-8.3L8.35-8.3Q6.85-5.85 4.25-0.15L4.25-0.15Q3.3 1.75 2.8 2.8 2.3 3.85 2.2 4.05L2.2 4.05Q1.75 4.65 1.4 4.65ZM11 1.05L11 1.05Q10.35 1.05 10.35-0.1L10.35-0.1Q10.35-1.05 10.8-1.95L10.8-1.95Q11.95-4.15 12.9-6.3L12.9-6.3Q13.55-7.6 14.12-8.8 14.7-10 15.2-11L15.2-11Q15.5-11.3 15.8-11.3L15.8-11.3Q16.45-11.3 16.2-10.7L16.2-10.7Q16.1-10.35 15.92-9.88 15.75-9.4 15.5-8.75L15.5-8.75Q14.7-6.65 14.55-5.8L14.55-5.8Q15.95-7.05 17.42-8.13 18.9-9.2 20.2-9.9 21.5-10.6 22.4-10.6L22.4-10.6Q23.2-10.6 23.2-9.95L23.2-9.95Q23.2-9.4 22.7-8.78 22.2-8.15 21.7-8.15L21.7-8.15Q21.45-8.15 21.3-8.3L21.3-8.3Q21.15-8.35 20.7-8.35L20.7-8.35Q19.1-8.35 17.35-6.8L17.35-6.8Q15.5-5.25 14-3.08 12.5-0.9 11.8 0.7L11.8 0.7Q11.45 1.05 11 1.05ZM28.75 1.35L28.75 1.35Q28.65 1.35 28.55 1.33 28.45 1.3 28.35 1.25L28.35 1.25Q27.65 0.9 27.45 0.25 27.25-0.4 27.35-1.4L27.35-1.4Q27.45-1.8 27.57-2.8 27.7-3.8 27.9-4.4L27.9-4.4 25.35-1.95 23.95-0.6Q22.5 0.85 21.55 0.85L21.55 0.85Q21.15 0.85 20.9 0.55L20.9 0.55Q20.45 0 20.45-0.8L20.45-0.8Q20.45-1.85 21-3.05 21.55-4.25 22.3-5.38 23.05-6.5 23.65-7.25L23.65-7.25Q25.15-9.1 26.57-10.15 28-11.2 29.55-11.2L29.55-11.2Q30.4-11.2 31.22-10.9 32.05-10.6 32.75-9.9L32.75-9.9 32.8-9.85Q32.8-9.7 32.55-9.55L32.55-9.55Q32.45-9.45 32.37-9.4 32.3-9.35 32.25-9.3L32.25-9.3Q31.65-8.7 30.9-7.3 30.15-5.9 29.6-4.38 29.05-2.85 29.05-1.75L29.05-1.75Q29.05-0.75 29.55-0.4L29.55-0.4Q29.8-0.25 30.1-0.25L30.1-0.25Q30.75-0.25 31.9-1.05L31.9-1.05Q31.95-1.1 32.12-1.23 32.3-1.35 32.65-1.6L32.65-1.6Q33.05-1.9 33.3-1.9L33.3-1.9Q33.55-1.9 33.55-1.7L33.55-1.7Q33.55-1.4 33.15-1L33.15-1Q32.85-0.75 32.47-0.45 32.1-0.15 31.6 0.15L31.6 0.15Q30.85 0.7 30.05 1.03 29.25 1.35 28.75 1.35ZM23.1-1.85L23.1-1.85Q24.15-1.85 27-4.95L27-4.95Q27.75-5.8 28.35-6.58 28.95-7.35 29.45-8.1L29.45-8.1Q30.35-9.55 30.05-10.1L30.05-10.1Q29.9-10.4 29.45-10.4L29.45-10.4Q28.9-10.4 27.95-9.83 27-9.25 26.02-8.35 25.05-7.45 24.25-6.55L24.25-6.55Q23.7-5.85 23.15-4.6 22.6-3.35 22.6-2.55L22.6-2.55Q22.6-1.85 23.1-1.85ZM36.49 1.8L36.49 1.8Q35.39 1.8 35.59-0.9L35.59-0.9Q35.69-1.5 36.02-2.8 36.34-4.1 36.84-5.68 37.34-7.25 37.79-8.5L37.79-8.5Q38.09-9.35 38.87-10.1 39.64-10.85 40.14-10.85L40.14-10.85Q40.44-10.85 40.44-10.45L40.44-10.45Q40.44-9.9 39.84-8.75L39.84-8.75Q39.09-7.35 38.64-6.38 38.19-5.4 37.92-4.42 37.64-3.45 37.34-2.05L37.34-2.05 37.34-1.6Q37.34 0 38.04-0.6L38.04-0.6Q39.34-1.65 40.74-3.08 42.14-4.5 43.39-5.95 44.64-7.4 45.39-8.5L45.39-8.5Q45.89-9.3 46.57-9.73 47.24-10.15 47.14-9.85L47.14-9.85Q47.09-9.4 46.32-8.2 45.54-7 44.42-5.53 43.29-4.05 42.12-2.7 40.94-1.35 40.04-0.6L40.04-0.6Q39.69-0.25 39.02 0.33 38.34 0.9 37.64 1.35 36.94 1.8 36.49 1.8ZM48.94 0.55L48.94 0.55Q47.89 0.55 47.09 0L47.09 0Q45.79-1 45.79-3L45.79-3Q45.79-5 47.19-7.25 48.59-9.5 51.44-11.4L51.44-11.4Q51.94-11.75 52.79-11.75L52.79-11.75Q53.89-11.75 54.77-11.15 55.64-10.55 55.44-9.6L55.44-9.6Q55.09-8.05 53.92-6.85 52.74-5.65 51.17-4.73 49.59-3.8 47.94-2.95L47.94-2.95Q47.89-2.8 47.87-2.65 47.84-2.5 47.84-2.35L47.84-2.35Q47.84-1.65 48.32-1.13 48.79-0.6 49.64-0.6L49.64-0.6Q50.29-0.6 50.74-0.8L50.74-0.8Q51.54-1.1 52.07-1.35 52.59-1.6 53.29-2.1 53.99-2.6 55.19-3.6L55.19-3.6Q55.74-4 55.84-4L55.84-4Q56.14-4 56.04-3.55L56.04-3.55Q55.54-2.75 54.32-1.8 53.09-0.85 51.62-0.15 50.14 0.55 48.94 0.55ZM48.24-4.3L48.24-4.3Q48.64-4.3 49.89-5.1 51.14-5.9 52.24-6.85L52.24-6.85Q54.14-8.6 54.14-9.55L54.14-9.55Q54.14-9.8 53.99-10L53.99-10Q53.84-10.25 53.54-10.25L53.54-10.25Q52.59-10.25 50.34-8L50.34-8Q48.79-6.5 48.24-4.3ZM56.14 3.3L56.14 3.3Q55.59 3.3 55.21 2.95 54.84 2.6 54.89 2.1L54.89 2.1Q54.99 0.05 55.66-1.85 56.34-3.75 57.64-6.4L57.64-6.4Q57.79-6.75 57.91-7.03 58.04-7.3 58.14-7.5L58.14-7.5Q59.24-9.85 60.39-12 61.54-14.15 62.69-16.2L62.69-16.2 63.39-17.45Q64.59-19.6 65.49-20.93 66.39-22.25 67.29-22.85L67.29-22.85Q68.44-23.55 68.69-23.55L68.69-23.55Q69.09-23.55 69.49-22.85L69.49-22.85Q69.74-22.35 68.49-20.4L68.49-20.4Q67.84-19.4 66.86-17.9 65.89-16.4 64.54-14.5L64.54-14.5Q64.29-14.15 63.71-13.28 63.14-12.4 62.19-11L62.19-11Q61.24-9.6 60.54-8.47 59.84-7.35 59.39-6.5L59.39-6.5Q58.49-4.85 57.69-2.98 56.89-1.1 56.89-0.05L56.89-0.05Q56.89 0.9 57.64 0.9L57.64 0.9Q58.84 0.9 61.49-1.15L61.49-1.15Q61.79-1.1 61.79-0.85L61.79-0.85Q61.79-0.65 61.29-0.15L61.29-0.15Q60.84 0.3 60.16 0.83 59.49 1.35 58.59 2.05L58.59 2.05 57.79 2.65Q56.99 3.3 56.14 3.3ZM63.84 3.3L63.84 3.3Q63.29 3.3 62.91 2.95 62.54 2.6 62.59 2.1L62.59 2.1Q62.69 0.05 63.36-1.85 64.04-3.75 65.34-6.4L65.34-6.4Q65.49-6.75 65.61-7.03 65.74-7.3 65.84-7.5L65.84-7.5Q66.94-9.85 68.09-12 69.24-14.15 70.39-16.2L70.39-16.2 71.09-17.45Q72.29-19.6 73.19-20.93 74.09-22.25 74.99-22.85L74.99-22.85Q76.14-23.55 76.39-23.55L76.39-23.55Q76.79-23.55 77.19-22.85L77.19-22.85Q77.44-22.35 76.19-20.4L76.19-20.4Q75.54-19.4 74.56-17.9 73.59-16.4 72.24-14.5L72.24-14.5Q71.99-14.15 71.41-13.28 70.84-12.4 69.89-11L69.89-11Q68.94-9.6 68.24-8.47 67.54-7.35 67.09-6.5L67.09-6.5Q66.19-4.85 65.39-2.98 64.59-1.1 64.59-0.05L64.59-0.05Q64.59 0.9 65.34 0.9L65.34 0.9Q66.54 0.9 69.19-1.15L69.19-1.15Q69.49-1.1 69.49-0.85L69.49-0.85Q69.49-0.65 68.99-0.15L68.99-0.15Q68.54 0.3 67.86 0.83 67.19 1.35 66.29 2.05L66.29 2.05 65.49 2.65Q64.69 3.3 63.84 3.3ZM73.03 0.85L73.03 0.85Q71.08 0.85 71.08-0.9L71.08-0.9Q71.08-1 71.11-1.25 71.13-1.5 71.18-1.85L71.18-1.85Q71.68-3.9 73.21-5.83 74.73-7.75 76.73-9.2L76.73-9.2Q77.48-9.8 79.13-9.8L79.13-9.8Q80.08-9.8 80.81-9.53 81.53-9.25 81.83-8.7L81.83-8.7Q82.13-8.2 82.13-7.55L82.13-7.55Q82.13-7.45 82.11-7.25 82.08-7.05 82.03-6.8L82.03-6.8Q82.13-6.85 82.36-6.85 82.58-6.85 82.93-6.9L82.93-6.9Q83.28-6.95 83.61-7 83.93-7.05 84.28-7.05L84.28-7.05 84.48-7.05Q85.03-7.05 84.61-6.63 84.18-6.2 83.48-6.1L83.48-6.1 81.78-5.9Q81.28-4.5 80.06-3.1 78.83-1.7 77.36-0.68 75.88 0.35 74.58 0.65L74.58 0.65Q73.83 0.85 73.03 0.85ZM79.43-6.6L79.43-6.6Q79.73-6.6 80.16-6.63 80.58-6.65 81.13-6.7L81.13-6.7Q81.18-6.8 81.18-7.15L81.18-7.15Q81.18-8.05 80.43-8.4L80.43-8.4Q80.03-8.65 79.43-8.65L79.43-8.65Q78.68-8.65 77.91-8.18 77.13-7.7 76.28-6.95L76.28-6.95Q77.33-6.6 79.43-6.6ZM74.53-0.9L74.53-0.9Q75.03-0.9 75.96-1.38 76.88-1.85 77.88-2.65 78.88-3.45 79.68-4.35L79.68-4.35Q79.93-4.6 80.18-4.98 80.43-5.35 80.73-5.75L80.73-5.75 79.53-5.6Q76.73-5.2 74.53-5.15L74.53-5.15Q73.43-3.35 73.18-2.15L73.18-2.15Q73.13-1.5 73.53-1.2 73.93-0.9 74.53-0.9Z" opacity="1" transform="matrix(1,0,0,1,0,0)" fill="#fff200" class="wordmark-text-0" data-fill-palette-color="primary" id="text-0"></path></svg></g></svg></g><g transform="matrix(1,0,0,1,0,101.6003101288935)"><svg viewBox="0 0 244.43135999999998 31.030920566380246" height="31.030920566380246" width="244.43135999999998"><g transform="matrix(1,0,0,1,0,0)"><svg width="244.43135999999998" viewBox="0.71 -38.11 403.42 51.22" height="31.030920566380246" data-palette-color="#68661b"><path d="M17.75-23.1L9.74-21.61 9.74-8.01Q9.74-6.35 10-5.22 10.25-4.1 10.75-3.55 11.25-3 11.82-2.8 12.38-2.59 13.16-2.59L13.16-2.59Q14.62-2.59 15.61-2.84 16.6-3.1 17.75-3.81L17.75-3.81 18.51-2.25Q15.06 0.61 10.96 0.61L10.96 0.61Q8.57 0.61 6.91-1.28 5.25-3.17 5.25-6.59L5.25-6.59 5.25-21.61 0.71-22.85 0.71-23.85 5.44-24.85 7.25-31.59 9.74-31.59 9.74-24.85 16.89-24.85 17.75-24.56 17.75-23.1ZM31.1-2.76L36.86-1 36.86 0 22.12 0 22.12-1 26.61-2.76 26.61-21.09 22.12-22.85 22.12-23.85 30.61-25.61 31.1-25.1 31.1-22.09Q34.81-25.61 40.87-25.61L40.87-25.61 40.87-20.19 39.87-19.85 36.3-21.8Q35.2-21.8 33.79-21.33 32.37-20.85 31.1-19.95L31.1-19.95 31.1-2.76ZM62.84-3.39L67.35-2.15 67.35-1.25 62.06 0.39Q60.49 0.73 59.42 0.04 58.34-0.66 58.34-2.34L58.34-2.34Q55.17 0.61 50.9 0.61L50.9 0.61Q47.36 0.61 45.6-1.22 43.84-3.05 43.84-5.81L43.84-5.81Q43.84-7.89 44.77-9.48 45.7-11.08 47.14-12.04 48.58-12.99 50.58-13.62 52.58-14.26 54.44-14.5 56.29-14.75 58.34-14.79L58.34-14.79 58.34-17.14Q58.34-20.56 57.27-21.9 56.2-23.24 53.71-23.24L53.71-23.24Q51.83-23.24 49.29-22.66L49.29-22.66 46.7-16.99 45.5-16.99 45.5-23.95Q47.7-24.73 50.14-25.17 52.58-25.61 54.44-25.61L54.44-25.61Q58.47-25.61 60.65-23.99 62.84-22.36 62.84-18.65L62.84-18.65 62.84-3.39ZM52.95-2.25L52.95-2.25Q54.34-2.25 55.81-2.92 57.27-3.59 58.34-4.76L58.34-4.76 58.34-12.79Q53.46-12.57 50.9-10.8 48.33-9.03 48.33-6.3L48.33-6.3Q48.33-4.2 49.68-3.22 51.02-2.25 52.95-2.25ZM84.98-25L95.33-25 95.33-24 91.84-22.24 91.84-22.41 83.12 0.05 80.44 0.61 70.79-22.24 67.33-24 67.33-25 79.29-25 79.29-24 75.48-22.51 82.54-5.64 88.59-22.56 84.98-24 84.98-25ZM118.37-13.06L117.67-12.35 101.87-12.35Q101.89-9.62 102.65-7.59 103.41-5.57 104.7-4.42 106-3.27 107.55-2.73 109.1-2.2 110.93-2.2L110.93-2.2Q113.47-2.2 116.37-3.91L116.37-3.91 117.13-2.44Q115.08-0.63 113.03-0.01 110.98 0.61 108.36 0.61L108.36 0.61Q106.09 0.61 103.99-0.35 101.89-1.32 100.31-3.02 98.72-4.71 97.77-7.18 96.82-9.64 96.82-12.5L96.82-12.5Q96.82-15.21 97.51-17.44 98.21-19.68 99.36-21.17 100.5-22.66 102.03-23.68 103.55-24.71 105.15-25.16 106.75-25.61 108.41-25.61L108.41-25.61Q110.49-25.61 112.26-24.84 114.03-24.07 115.41-22.57 116.79-21.07 117.58-18.63 118.37-16.19 118.37-13.06L118.37-13.06ZM108.51-23.24L108.51-23.24Q105.7-23.24 104.03-21.02 102.36-18.8 101.97-14.94L101.97-14.94 113.61-14.94Q113.61-18.85 112.29-21.04 110.98-23.24 108.51-23.24ZM130.87-2.76L135.36-1 135.36 0 121.86 0 121.86-1 126.38-2.76 126.38-33.59 121.86-35.35 121.86-36.35 130.38-38.11 130.87-37.6 130.87-2.76ZM148.37-2.76L152.87-1 152.87 0 139.36 0 139.36-1 143.86-2.76 143.86-21.09 139.36-22.85 139.36-23.85 147.86-25.61 148.37-25.1 148.37-2.76ZM142.22-32.96L142.22-32.96Q142.22-34.23 143.11-35.12 144-36.01 145.32-36.01L145.32-36.01Q146.59-36.01 147.48-35.12 148.37-34.23 148.37-32.96L148.37-32.96Q148.37-31.64 147.48-30.75 146.59-29.86 145.32-29.86L145.32-29.86Q144-29.86 143.11-30.75 142.22-31.64 142.22-32.96ZM165.09-2.76L169.34-1 169.34 0 156.11 0 156.11-1 160.6-2.76 160.6-21.09 156.11-22.85 156.11-23.85 164.61-25.61 165.09-25.1 165.09-22.14Q166.83-23.75 169.15-24.68 171.47-25.61 173.71-25.61L173.71-25.61Q176.98-25.61 179.15-23.61 181.31-21.61 181.31-17.65L181.31-17.65 181.31-2.76 185.8-1 185.8 0 172.54 0 172.54-1 176.81-2.76 176.81-16.16Q176.81-19.68 175.56-21.04 174.3-22.41 171.25-22.41L171.25-22.41Q167.61-22.41 165.09-20.24L165.09-20.24 165.09-2.76ZM195.9 0.95L195.9 0.95Q193.51 2.42 193.51 5.59L193.51 5.59Q193.51 7.03 194.22 8 194.93 8.96 196.02 9.53 197.12 10.11 198.47 10.35 199.81 10.6 201.05 10.6L201.05 10.6Q202.35 10.6 203.65 10.34 204.96 10.08 206 9.58 207.04 9.08 207.69 8.34 208.35 7.59 208.35 6.59L208.35 6.59Q208.35 5.05 207.58 4.13 206.82 3.2 205.5 2.65 204.18 2.1 202.4 1.83 200.61 1.56 198.59 1.34L198.59 1.34Q197.73 1.25 197.06 1.15 196.39 1.05 195.9 0.95ZM200.81-6.81L200.81-6.81Q198.3-6.81 196.2-7.59L196.2-7.59Q194.66-6.57 194.66-5L194.66-5Q194.66-4.1 195.7-3.56 196.73-3.03 198.39-2.8 200.05-2.56 202.06-2.37 204.06-2.17 206.06-1.76 208.06-1.34 209.72-0.62 211.38 0.1 212.42 1.55 213.46 3 213.46 5.1L213.46 5.1Q213.46 6.79 212.65 8.18 211.85 9.57 210.54 10.46 209.23 11.35 207.48 11.96 205.72 12.57 203.9 12.84 202.08 13.11 200.2 13.11L200.2 13.11Q194.95 13.11 192 11.29 189.04 9.47 189.04 6.54L189.04 6.54Q189.04 2.32 193.71 0.39L193.71 0.39Q190.8-0.59 190.8-3.25L190.8-3.25Q190.8-6.37 194.61-8.45L194.61-8.45Q192.48-9.74 191.35-11.82 190.21-13.89 190.21-16.21L190.21-16.21Q190.21-17.99 190.92-19.67 191.63-21.34 192.94-22.67 194.24-24 196.29-24.8 198.34-25.61 200.81-25.61L200.81-25.61Q202.96-25.61 204.74-25L204.74-25 214.56-25 214.56-24 209.21-22.09Q211.41-19.53 211.41-16.21L211.41-16.21Q211.41-14.43 210.69-12.76 209.97-11.08 208.66-9.75 207.35-8.42 205.31-7.62 203.28-6.81 200.81-6.81ZM195.29-16.21L195.29-16.21Q195.29-12.87 196.76-11.08 198.22-9.3 200.81-9.3L200.81-9.3Q203.37-9.3 204.84-11.1 206.3-12.89 206.3-16.21L206.3-16.21Q206.3-19.53 204.84-21.31 203.37-23.1 200.81-23.1L200.81-23.1Q198.22-23.1 196.76-21.31 195.29-19.53 195.29-16.21ZM261.55 0.05L258.84 0.61 251.61-18.31 245.46 0.05 242.75 0.61 234.74-22.41 231.54-24 231.54-25 243.51-25 243.51-24 239.45-22.41 244.8-5.96 251.2-25 253.86-25 260.69-6.45 265.09-22.41 261.01-24 261.01-25 271.04-25 271.04-24 267.75-22.34 261.55 0.05ZM281.3-2.76L285.79-1 285.79 0 272.29 0 272.29-1 276.78-2.76 276.78-21.09 272.29-22.85 272.29-23.85 280.78-25.61 281.3-25.1 281.3-2.76ZM275.14-32.96L275.14-32.96Q275.14-34.23 276.03-35.12 276.93-36.01 278.24-36.01L278.24-36.01Q279.51-36.01 280.4-35.12 281.3-34.23 281.3-32.96L281.3-32.96Q281.3-31.64 280.4-30.75 279.51-29.86 278.24-29.86L278.24-29.86Q276.93-29.86 276.03-30.75 275.14-31.64 275.14-32.96ZM305.02-23.1L297.02-21.61 297.02-8.01Q297.02-6.35 297.27-5.22 297.53-4.1 298.03-3.55 298.53-3 299.09-2.8 299.65-2.59 300.43-2.59L300.43-2.59Q301.9-2.59 302.89-2.84 303.88-3.1 305.02-3.81L305.02-3.81 305.78-2.25Q302.34 0.61 298.24 0.61L298.24 0.61Q295.84 0.61 294.18-1.28 292.52-3.17 292.52-6.59L292.52-6.59 292.52-21.61 287.98-22.85 287.98-23.85 292.72-24.85 294.53-31.59 297.02-31.59 297.02-24.85 304.17-24.85 305.02-24.56 305.02-23.1ZM318.13-2.76L322.38-1 322.38 0 309.12 0 309.12-1 313.64-2.76 313.64-33.59 309.12-35.35 309.12-36.35 317.64-38.11 318.13-37.6 318.13-22.14Q319.84-23.75 322.16-24.68 324.48-25.61 326.73-25.61L326.73-25.61Q330.02-25.61 332.18-23.61 334.34-21.61 334.34-17.65L334.34-17.65 334.34-2.76 338.83-1 338.83 0 325.58 0 325.58-1 329.83-2.76 329.83-16.16Q329.83-19.68 328.58-21.04 327.34-22.41 324.28-22.41L324.28-22.41Q320.65-22.41 318.13-20.24L318.13-20.24 318.13-2.76ZM380.38-13.06L379.67-12.35 363.88-12.35Q363.9-9.62 364.66-7.59 365.42-5.57 366.71-4.42 368-3.27 369.55-2.73 371.11-2.2 372.94-2.2L372.94-2.2Q375.48-2.2 378.38-3.91L378.38-3.91 379.14-2.44Q377.09-0.63 375.04-0.01 372.98 0.61 370.37 0.61L370.37 0.61Q368.1 0.61 366-0.35 363.9-1.32 362.32-3.02 360.73-4.71 359.78-7.18 358.82-9.64 358.82-12.5L358.82-12.5Q358.82-15.21 359.52-17.44 360.22-19.68 361.36-21.17 362.51-22.66 364.04-23.68 365.56-24.71 367.16-25.16 368.76-25.61 370.42-25.61L370.42-25.61Q372.5-25.61 374.27-24.84 376.04-24.07 377.42-22.57 378.8-21.07 379.59-18.63 380.38-16.19 380.38-13.06L380.38-13.06ZM370.52-23.24L370.52-23.24Q367.71-23.24 366.04-21.02 364.37-18.8 363.98-14.94L363.98-14.94 375.62-14.94Q375.62-18.85 374.3-21.04 372.98-23.24 370.52-23.24ZM384.87-25L404.13-25 404.13-22.51 389.54-2.49 400.03-2.49 402.89-8.5 403.89-8.5 403.89 0 384.63 0 384.63-2.49 399.23-22.51 388.73-22.51 385.87-16.5 384.87-16.5 384.87-25Z" opacity="1" transform="matrix(1,0,0,1,0,0)" fill="#68661b" class="slogan-text-1" data-fill-palette-color="secondary" id="text-1"></path></svg></g></svg></g></svg></g></svg></g><g></g></svg></g></svg></g></svg></g><g><path d="M110.647 37.88A122.216 122.216 0 0 1 284.873 37.88L277.461 37.88A114.803 114.803 0 0 0 118.059 37.88L110.647 37.88M110.647 209.32A122.216 122.216 0 0 0 284.873 209.32L277.461 209.32A114.803 114.803 0 0 1 118.059 209.32L110.647 209.32" fill="#f6f6f6" stroke="transparent" data-fill-palette-color="tertiary"></path></g></svg></g><defs></defs></svg><rect width="395.52" height="247.2" fill="none" stroke="none" visibility="hidden"></rect></g></svg></g></svg>