<svg xmlns="http://www.w3.org/2000/svg" version="1.1" xmlns:xlink="http://www.w3.org/1999/xlink" xmlns:svgjs="http://svgjs.dev/svgjs" width="1500" height="939" viewBox="0 0 1500 939"><g transform="matrix(1,0,0,1,-0.9090909090909918,-1.5145161290323017)"><svg viewBox="0 0 396 248" data-background-color="#14293a" preserveAspectRatio="xMidYMid meet" height="939" width="1500" xmlns="http://www.w3.org/2000/svg" xmlns:xlink="http://www.w3.org/1999/xlink"><g id="tight-bounds" transform="matrix(1,0,0,1,0.2400000000000091,0.4000000000000057)"><svg viewBox="0 0 395.52 247.2" height="247.2" width="395.52"><g><svg></svg></g><g><svg viewBox="0 0 395.52 247.2" height="247.2" width="395.52"><g transform="matrix(1,0,0,1,162.58278947368422,47.215199999999996)"><svg viewBox="0 0 70.35442105263158 152.7696" height="152.7696" width="70.35442105263158"><g><svg viewBox="0 0 70.35442105263158 152.7696" height="152.7696" width="70.35442105263158"><g><svg viewBox="0 0 70.35442105263158 152.7696" height="152.7696" width="70.35442105263158"><g><svg viewBox="0 0 70.35442105263158 152.7696" height="152.7696" width="70.35442105263158"><g id="textblocktransform"><svg viewBox="0 0 70.35442105263158 152.7696" height="152.7696" width="70.35442105263158" id="textblock"><g><svg viewBox="0 0 70.35442105263158 152.7696" height="152.7696" width="70.35442105263158"><g transform="matrix(1,0,0,1,0,0)"><svg width="70.35442105263158" viewBox="0.42 -31.25 14.58 31.67" height="152.7696" data-palette-color="#e9e4de"><path d="M6.53 0.42L6.53 0.42Q4.86 0.42 3.23-0.1 1.6-0.63 0.42-1.88L0.42-1.88 1.56-6.04Q2.36-4.69 3.63-3.91 4.9-3.13 6.49-3.13L6.49-3.13Q8.33-3.13 9.69-4.41 11.04-5.69 11.04-8.89L11.04-8.89 11.04-31.25 15-31.25 15-8.58Q15-5.49 13.82-3.49 12.64-1.49 10.71-0.54 8.78 0.42 6.53 0.42Z" opacity="1" transform="matrix(1,0,0,1,0,0)" fill="#e9e4de" class="wordmark-text-0" data-fill-palette-color="primary" id="text-0"></path></svg></g></svg></g></svg></g></svg></g></svg></g></svg></g></svg></g><g><path d="M158.777 0c30.402 0 58.24 10.976 79.768 29.183l-11.147 0c-19.26-14.022-42.974-22.294-68.621-22.295-25.647 0-49.361 8.272-68.621 22.295l-11.147 0c21.528-18.206 49.366-29.183 79.768-29.183zM158.777 247.2c-30.402 0-58.24-10.976-79.768-29.183l11.147 0c19.26 14.022 42.974 22.294 68.621 22.295 25.647 0 49.361-8.272 68.621-22.295l11.147 0c-21.528 18.206-49.366 29.183-79.768 29.183z" fill="#e9e4de" stroke="transparent" data-fill-palette-color="tertiary"></path></g></svg></g><defs></defs></svg><rect width="395.52" height="247.2" fill="none" stroke="none" visibility="hidden"></rect></g></svg></g></svg>